<svg width="15" height="15" viewBox="0 0 15 15" fill="none" xmlns="http://www.w3.org/2000/svg">
<path d="M2.382 1.19095L11.91 1.19095C12.2389 1.19095 12.5055 1.45757 12.5055 1.78645L12.5055 13.2655C12.5055 13.43 12.3722 13.5633 12.2077 13.5633C12.1659 13.5633 12.1246 13.5544 12.0864 13.5374L7.14599 11.3331L2.20557 13.5374C2.0554 13.6044 1.87934 13.537 1.81234 13.3868C1.7953 13.3486 1.7865 13.3073 1.7865 13.2655L1.7865 1.78645C1.7865 1.45757 2.05312 1.19095 2.382 1.19095ZM11.3145 11.8888L11.3145 2.38195L2.9775 2.38195L2.9775 11.8888L7.14599 10.0289L11.3145 11.8888ZM7.14599 8.03919L5.39586 8.9593L5.73011 7.01047L4.31423 5.63035L6.27091 5.34602L7.14599 3.57295L8.02108 5.34602L9.97777 5.63035L8.56185 7.01047L8.89611 8.9593L7.14599 8.03919Z" fill="#878787"/>
</svg>
