<svg width="17" height="17" viewBox="0 0 17 17" fill="none" xmlns="http://www.w3.org/2000/svg">
<path d="M4.13348 12.0589C4.27189 11.6666 4.52857 11.3269 4.86813 11.0866C5.2077 10.8464 5.61343 10.7173 6.0294 10.7173C6.44537 10.7173 6.85111 10.8464 7.19067 11.0866C7.53024 11.3269 7.78691 11.6666 7.92532 12.0589L14.7386 12.0589L14.7386 13.3987L7.92532 13.3987C7.78691 13.791 7.53024 14.1307 7.19067 14.371C6.85111 14.6112 6.44537 14.7402 6.0294 14.7402C5.61343 14.7402 5.2077 14.6112 4.86813 14.371C4.52857 14.1307 4.27189 13.791 4.13348 13.3987H1.33984L1.33984 12.0589H4.13348ZM8.1531 7.3693C8.29151 6.97703 8.54819 6.63735 8.88775 6.39708C9.22732 6.15681 9.63305 6.02778 10.049 6.02778C10.465 6.02778 10.8707 6.15681 11.2103 6.39708C11.5499 6.63735 11.8065 6.97703 11.9449 7.3693L14.7386 7.3693L14.7386 8.70917H11.9449C11.8065 9.10144 11.5499 9.44112 11.2103 9.68139C10.8707 9.92166 10.465 10.0507 10.049 10.0507C9.63305 10.0507 9.22732 9.92166 8.88775 9.68139C8.54819 9.44112 8.29151 9.10144 8.1531 8.70917L1.33984 8.70917L1.33984 7.3693L8.1531 7.3693ZM4.13348 2.67974C4.27189 2.28747 4.52857 1.94779 4.86813 1.70752C5.2077 1.46725 5.61343 1.33823 6.0294 1.33823C6.44537 1.33823 6.85111 1.46725 7.19067 1.70752C7.53024 1.94779 7.78691 2.28747 7.92532 2.67974L14.7386 2.67974V4.01962L7.92532 4.01962C7.78691 4.41189 7.53024 4.75157 7.19067 4.99184C6.85111 5.2321 6.44537 5.36113 6.0294 5.36113C5.61343 5.36113 5.2077 5.2321 4.86813 4.99184C4.52857 4.75157 4.27189 4.41189 4.13348 4.01962L1.33984 4.01962L1.33984 2.67974L4.13348 2.67974Z" fill="#878787"/>
</svg>
