<svg width="11" height="15" viewBox="0 0 11 15" fill="none" xmlns="http://www.w3.org/2000/svg">
<path d="M5.3595 11.0437L8.20204 8.20184C8.76413 7.63966 9.14689 6.92343 9.30193 6.14372C9.45698 5.36401 9.37733 4.55583 9.07308 3.82138C8.76882 3.08693 8.25362 2.45919 7.59261 2.01754C6.9316 1.57589 6.15447 1.34016 5.3595 1.34016C4.56452 1.34016 3.7874 1.57589 3.12639 2.01754C2.46538 2.45919 1.95017 3.08693 1.64592 3.82138C1.34166 4.55583 1.26202 5.36401 1.41706 6.14372C1.57211 6.92343 1.95487 7.63966 2.51696 8.20184L5.3595 11.0437ZM9.14933 9.14913L5.3595 12.939L1.56966 9.14913C0.820153 8.39958 0.309738 7.44461 0.102963 6.40498C-0.103812 5.36535 0.0023405 4.28775 0.407996 3.30844C0.813652 2.32914 1.50059 1.49212 2.38195 0.903219C3.26331 0.314322 4.2995 0 5.3595 0C6.41949 0 7.45569 0.314322 8.33704 0.903219C9.2184 1.49212 9.90534 2.32914 10.311 3.30844C10.7167 4.28775 10.8228 5.36535 10.616 6.40498C10.4093 7.44461 9.89884 8.39958 9.14933 9.14913ZM0.669939 13.3985L10.0491 13.3985L10.0491 14.7384L0.669939 14.7384L0.669939 13.3985Z" fill="#4FAF5A"/>
</svg>
