<svg width="15" height="15" viewBox="0 0 15 15" fill="none" xmlns="http://www.w3.org/2000/svg">
<path d="M11.9131 13.1009L2.38505 13.1009C2.05617 13.1009 1.78955 12.8343 1.78955 12.5054L1.78955 1.78641C1.78955 1.45753 2.05617 1.19091 2.38505 1.19091L11.9131 1.19091C12.2419 1.19091 12.5086 1.45753 12.5086 1.78641L12.5086 12.5054C12.5086 12.8343 12.2419 13.1009 11.9131 13.1009ZM11.3176 11.9099L11.3176 2.38191L2.98055 2.38191L2.98055 11.9099L11.3176 11.9099ZM5.36255 3.57291L5.36255 4.76391C5.36255 5.75056 6.16237 6.55041 7.14906 6.55041C8.13568 6.55041 8.93556 5.75056 8.93556 4.76391L8.93556 3.57291L10.1266 3.57291L10.1266 4.76391C10.1266 6.40832 8.79347 7.7414 7.14906 7.7414C5.50462 7.7414 4.17155 6.40832 4.17155 4.76391L4.17155 3.57291L5.36255 3.57291Z" fill="#878787"/>
</svg>
