<svg width="14" height="14" viewBox="0 0 14 14" fill="none" xmlns="http://www.w3.org/2000/svg">
<path d="M6.69937 13.3987C2.99941 13.3987 0 10.3993 0 6.69937C0 2.99941 2.99941 0 6.69937 0C10.3993 0 13.3987 2.99941 13.3987 6.69937C13.3987 10.3993 10.3993 13.3987 6.69937 13.3987ZM6.69937 12.0589C9.65935 12.0589 12.0589 9.65935 12.0589 6.69937C12.0589 3.7394 9.65935 1.33987 6.69937 1.33987C3.7394 1.33987 1.33987 3.7394 1.33987 6.69937C1.33987 9.65935 3.7394 12.0589 6.69937 12.0589ZM3.34968 6.69937L4.68956 6.69937C4.68956 7.80939 5.58935 8.70918 6.69937 8.70918C7.80939 8.70918 8.70918 7.80939 8.70918 6.69937L10.0491 6.69937C10.0491 8.54933 8.54933 10.0491 6.69937 10.0491C4.84939 10.0491 3.34968 8.54933 3.34968 6.69937Z" fill="#878787"/>
</svg>
