<svg width="14" height="14" viewBox="0 0 14 14" fill="none" xmlns="http://www.w3.org/2000/svg">
<path d="M10.7398 9.79247L13.6091 12.6611L12.6611 13.6091L9.79247 10.7398C8.72508 11.5954 7.39744 12.0608 6.02943 12.0589C2.70119 12.0589 0 9.35768 0 6.02943C0 2.70119 2.70119 0 6.02943 0C9.35768 0 12.0589 2.70119 12.0589 6.02943C12.0608 7.39744 11.5954 8.72508 10.7398 9.79247ZM9.39586 9.29537C10.2461 8.42103 10.7209 7.249 10.719 6.02943C10.719 3.43879 8.62008 1.33987 6.02943 1.33987C3.43879 1.33987 1.33987 3.43879 1.33987 6.02943C1.33987 8.62008 3.43879 10.719 6.02943 10.719C7.249 10.7209 8.42103 10.2461 9.29537 9.39586L9.39586 9.29537Z" fill="#878787"/>
</svg>
